<?xml version="1.0" encoding="UTF-8" standalone="no"?>
<!-- Created with Inkscape (http://www.inkscape.org/) -->

<svg
   xmlns:dc="http://purl.org/dc/elements/1.1/"
   xmlns:cc="http://creativecommons.org/ns#"
   xmlns:rdf="http://www.w3.org/1999/02/22-rdf-syntax-ns#"
   xmlns:svg="http://www.w3.org/2000/svg"
   xmlns="http://www.w3.org/2000/svg"
   xmlns:sodipodi="http://sodipodi.sourceforge.net/DTD/sodipodi-0.dtd"
   xmlns:inkscape="http://www.inkscape.org/namespaces/inkscape"
   width="744.09448819"
   height="1052.3622047"
   id="svg2989"
   version="1.1"
   inkscape:version="0.48.4 r9939"
   sodipodi:docname="New document 2">
  <sodipodi:namedview
     id="base"
     pagecolor="#ffffff"
     bordercolor="#666666"
     borderopacity="1.0"
     inkscape:pageopacity="0.0"
     inkscape:pageshadow="2"
     inkscape:zoom="4.5998526"
     inkscape:cx="333.48169"
     inkscape:cy="700.76916"
     inkscape:document-units="px"
     inkscape:current-layer="layer1"
     showgrid="false"
     inkscape:object-paths="true"
     inkscape:window-width="1920"
     inkscape:window-height="1138"
     inkscape:window-x="-8"
     inkscape:window-y="-8"
     inkscape:window-maximized="1" />
  <defs
     id="defs2991" />
  <metadata
     id="metadata2994">
    <rdf:RDF>
      <cc:Work
         rdf:about="">
        <dc:format>image/svg+xml</dc:format>
        <dc:type
           rdf:resource="http://purl.org/dc/dcmitype/StillImage" />
        <dc:title></dc:title>
      </cc:Work>
    </rdf:RDF>
  </metadata>
  <g
     id="layer1"
     inkscape:groupmode="layer"
     inkscape:label="Layer 1">
    <path
       style="fill:#4b4b4b;fill-opacity:1;fill-rule:nonzero"
       d=""
       id="path3879"
       inkscape:connector-curvature="0" />
    <path
       style="fill:#4b4b4b;fill-opacity:1;fill-rule:nonzero"
       d=""
       id="path3889"
       inkscape:connector-curvature="0" />
    <g
       id="g3963"
       transform="translate(-0.54349567,0)"
       inkscape:export-filename="C:\workspaces\dcs-package-tool-gui\src\main\resources\images\gray-arrows.png"
       inkscape:export-xdpi="16.348774"
       inkscape:export-ydpi="16.348774">
      <path
         inkscape:connector-curvature="0"
         id="path3947"
         d="M 203.56541,378.78567 340.64288,253.44094 476.11373,380.06388 z"
         style="fill:none;stroke:#4b4b4b;stroke-width:1px;stroke-linecap:butt;stroke-linejoin:miter;stroke-opacity:1" />
      <path
         inkscape:connector-curvature="0"
         id="path3949"
         d="m 332.37025,378.80235 c -67.85544,-0.33367 -124.20447,-0.63822 -125.22008,-0.67677 l -1.84655,-0.0701 67.58121,-61.79546 c 37.16966,-33.9875 67.65736,-61.79546 67.75044,-61.79546 0.16186,0 129.47097,120.73709 132.38963,123.6134 l 1.41109,1.39061 -9.34612,-0.0298 c -5.14036,-0.0164 -64.86419,-0.30278 -132.71962,-0.63646 z"
         style="fill:#4b4b4b;fill-opacity:1;fill-rule:nonzero;stroke:#4b4b4b;stroke-width:0.21739827;stroke-opacity:1" />
      <path
         inkscape:connector-curvature="0"
         id="path3951"
         d="m 350.8491,379.88502 c -67.85544,-0.33597 -128.9646,-0.64048 -135.79815,-0.67669 l -12.42464,-0.0658 68.94661,-63.0455 c 37.92063,-34.67502 69.00206,-63.0455 69.06986,-63.0455 0.0678,0 30.68318,28.56613 68.03421,63.4803 37.35103,34.91416 68.06355,63.59947 68.25008,63.74513 0.27501,0.21476 0.0514,0.26049 -1.18267,0.24189 -0.83698,-0.0126 -57.03987,-0.29783 -124.8953,-0.63379 l 0,0 z m 124.0496,-0.37777 c -0.25516,-0.41287 -134.07532,-125.36877 -134.26231,-125.36877 -0.11276,0 -30.75048,27.93025 -68.08384,62.06721 l -67.87882,62.0672 12.27052,0.1334 c 18.31166,0.19907 97.07277,0.47782 96.94586,0.34311 -0.11893,-0.12624 -23.37111,-0.29608 -68.91397,-0.50335 -15.8429,-0.0721 -31.15689,-0.19339 -34.03109,-0.26953 l -5.22581,-0.13842 31.74035,-29.02267 c 53.53842,-48.95434 102.99501,-94.02475 103.1751,-94.02475 0.19578,0 53.9257,50.05283 101.41298,94.47263 l 32.17495,30.09658 -12.5004,-0.0151 c -6.87522,-0.008 -10.78839,0.0441 -8.69594,0.1165 6.04576,0.20908 21.99395,0.24257 21.87242,0.0459 l 0,0 z m -27.76028,-0.12167 c -0.0498,-0.0457 -9.77568,-0.12877 -21.61302,-0.1847 -11.83733,-0.0559 -20.15282,-0.0388 -18.47885,0.038 3.26562,0.14993 40.24305,0.2852 40.09187,0.14666 l 0,0 z m -45.21884,-0.2174 c -0.0498,-0.0457 -9.77568,-0.12948 -21.61302,-0.1863 -11.83733,-0.0568 -20.39739,-0.039 -19.02234,0.0396 2.64195,0.15105 40.7904,0.28873 40.63536,0.14666 l 0,0 z m -45.21884,-0.21582 c -0.0498,-0.0448 -9.28653,-0.13447 -20.52602,-0.19929 -11.23949,-0.0648 -20.09304,-0.041 -19.67455,0.0528 0.7379,0.16551 40.38243,0.30996 40.20057,0.14648 l 0,0 z"
         style="fill:#4b4b4b;fill-opacity:1;fill-rule:nonzero;stroke:#4b4b4b;stroke-width:0.21739827;stroke-opacity:1" />
      <path
         inkscape:connector-curvature="0"
         id="path3953"
         d="m 408.78574,380.21823 c -27.62045,-0.14898 -84.3614,-0.43172 -126.091,-0.62831 -41.7296,-0.19658 -76.83033,-0.37768 -78.00163,-0.40243 l -2.12964,-0.045 31.14606,-28.47918 c 17.13033,-15.66354 48.20582,-44.06998 69.05665,-63.12542 l 37.9106,-34.64624 1.33604,1.29897 c 0.73482,0.71443 14.73864,13.80926 31.1196,29.09961 54.28728,50.67297 102.60137,95.79228 103.36925,96.53393 l 0.75728,0.73142 -9.12712,-0.0332 c -5.0199,-0.0183 -31.72564,-0.15513 -59.34609,-0.30411 z m 61.91598,-0.69427 c -1.2191,-0.0387 -3.27352,-0.0388 -4.56536,-2.2e-4 -1.29187,0.0385 -0.29445,0.0702 2.2165,0.0703 2.51095,1.8e-4 3.56794,-0.0313 2.34886,-0.07 l 0,-1.1e-4 z m 4.02815,-0.0357 c -0.0759,-0.20702 -32.5962,-30.64487 -87.68396,-82.06903 -17.93536,-16.74258 -35.66416,-33.30553 -39.39734,-36.80657 -3.73318,-3.50103 -6.88517,-6.36552 -7.00442,-6.36552 -0.11925,0 -3.08133,2.61992 -6.58239,5.82204 -3.50107,3.20213 -14.87672,13.59474 -25.27923,23.09469 -49.78645,45.46685 -102.67797,93.819 -103.26417,94.40164 -0.35871,0.35652 -0.53569,0.61261 -0.39329,0.56908 0.1424,-0.0435 6.30231,-5.60648 13.6887,-12.36214 62.62553,-57.27783 121.57371,-110.98181 121.81919,-110.98181 0.0971,0 6.86178,6.21215 15.03271,13.80479 16.3139,15.15928 87.5018,81.58998 105.18695,98.15773 2.57074,2.40831 6.65467,6.22452 9.07542,8.48047 2.99793,2.79383 4.31503,4.15657 4.13057,4.27369 -0.1777,0.11285 -0.0964,0.17311 0.23646,0.1753 0.27901,0.002 0.47467,-0.0856 0.4348,-0.19436 z M 336.6573,378.87373 c -0.57156,-0.0449 -1.45202,-0.0444 -1.95658,10e-4 -0.50456,0.0456 -0.0369,0.0824 1.0392,0.0817 1.07612,-6.5e-4 1.48894,-0.038 0.91738,-0.0829 l 0,-1e-4 z m -64.08983,-0.36546 c -0.15981,-0.15981 -36.91685,-0.22175 -37.07612,-0.0625 -0.0843,0.0843 8.24381,0.15319 18.50682,0.15319 10.26301,0 18.61919,-0.0408 18.5693,-0.0907 z m -39.54823,-0.24728 c -0.78479,-0.16886 -27.39218,-0.23217 -27.39218,-0.0652 0,0.10218 6.23661,0.17444 13.85914,0.16057 7.62252,-0.0139 13.71239,-0.0568 13.53304,-0.0954 l 0,0 z"
         style="fill:#4b4b4b;fill-opacity:1;fill-rule:nonzero;stroke:#4b4b4b;stroke-width:0.21739827;stroke-opacity:1" />
    </g>
    <path
       style="fill:#4b4b4b;fill-opacity:1;fill-rule:nonzero;stroke:#4b4b4b;stroke-width:0.21739827;stroke-opacity:1"
       d=""
       id="path3955"
       inkscape:connector-curvature="0" />
    <path
       style="fill:#4b4b4b;fill-opacity:1;fill-rule:nonzero;stroke:#4b4b4b;stroke-width:0.21739827;stroke-opacity:1"
       d=""
       id="path3957"
       inkscape:connector-curvature="0" />
    <g
       id="g3969"
       transform="matrix(1,0,0,-1,-0.54349567,787.14781)"
       inkscape:export-filename="C:\workspaces\dcs-package-tool-gui\src\main\resources\images\gray-arrows.png"
       inkscape:export-xdpi="16.348774"
       inkscape:export-ydpi="16.348774">
      <path
         style="fill:none;stroke:#4b4b4b;stroke-width:1px;stroke-linecap:butt;stroke-linejoin:miter;stroke-opacity:1"
         d="M 203.56541,378.78567 340.64288,253.44094 476.11373,380.06388 z"
         id="path3971"
         inkscape:connector-curvature="0" />
      <path
         style="fill:#4b4b4b;fill-opacity:1;fill-rule:nonzero;stroke:#4b4b4b;stroke-width:0.21739827;stroke-opacity:1"
         d="m 332.37025,378.80235 c -67.85544,-0.33367 -124.20447,-0.63822 -125.22008,-0.67677 l -1.84655,-0.0701 67.58121,-61.79546 c 37.16966,-33.9875 67.65736,-61.79546 67.75044,-61.79546 0.16186,0 129.47097,120.73709 132.38963,123.6134 l 1.41109,1.39061 -9.34612,-0.0298 c -5.14036,-0.0164 -64.86419,-0.30278 -132.71962,-0.63646 z"
         id="path3973"
         inkscape:connector-curvature="0" />
      <path
         style="fill:#4b4b4b;fill-opacity:1;fill-rule:nonzero;stroke:#4b4b4b;stroke-width:0.21739827;stroke-opacity:1"
         d="m 350.8491,379.88502 c -67.85544,-0.33597 -128.9646,-0.64048 -135.79815,-0.67669 l -12.42464,-0.0658 68.94661,-63.0455 c 37.92063,-34.67502 69.00206,-63.0455 69.06986,-63.0455 0.0678,0 30.68318,28.56613 68.03421,63.4803 37.35103,34.91416 68.06355,63.59947 68.25008,63.74513 0.27501,0.21476 0.0514,0.26049 -1.18267,0.24189 -0.83698,-0.0126 -57.03987,-0.29783 -124.8953,-0.63379 l 0,0 z m 124.0496,-0.37777 c -0.25516,-0.41287 -134.07532,-125.36877 -134.26231,-125.36877 -0.11276,0 -30.75048,27.93025 -68.08384,62.06721 l -67.87882,62.0672 12.27052,0.1334 c 18.31166,0.19907 97.07277,0.47782 96.94586,0.34311 -0.11893,-0.12624 -23.37111,-0.29608 -68.91397,-0.50335 -15.8429,-0.0721 -31.15689,-0.19339 -34.03109,-0.26953 l -5.22581,-0.13842 31.74035,-29.02267 c 53.53842,-48.95434 102.99501,-94.02475 103.1751,-94.02475 0.19578,0 53.9257,50.05283 101.41298,94.47263 l 32.17495,30.09658 -12.5004,-0.0151 c -6.87522,-0.008 -10.78839,0.0441 -8.69594,0.1165 6.04576,0.20908 21.99395,0.24257 21.87242,0.0459 l 0,0 z m -27.76028,-0.12167 c -0.0498,-0.0457 -9.77568,-0.12877 -21.61302,-0.1847 -11.83733,-0.0559 -20.15282,-0.0388 -18.47885,0.038 3.26562,0.14993 40.24305,0.2852 40.09187,0.14666 l 0,0 z m -45.21884,-0.2174 c -0.0498,-0.0457 -9.77568,-0.12948 -21.61302,-0.1863 -11.83733,-0.0568 -20.39739,-0.039 -19.02234,0.0396 2.64195,0.15105 40.7904,0.28873 40.63536,0.14666 l 0,0 z m -45.21884,-0.21582 c -0.0498,-0.0448 -9.28653,-0.13447 -20.52602,-0.19929 -11.23949,-0.0648 -20.09304,-0.041 -19.67455,0.0528 0.7379,0.16551 40.38243,0.30996 40.20057,0.14648 l 0,0 z"
         id="path3975"
         inkscape:connector-curvature="0" />
      <path
         style="fill:#4b4b4b;fill-opacity:1;fill-rule:nonzero;stroke:#4b4b4b;stroke-width:0.21739827;stroke-opacity:1"
         d="m 408.78574,380.21823 c -27.62045,-0.14898 -84.3614,-0.43172 -126.091,-0.62831 -41.7296,-0.19658 -76.83033,-0.37768 -78.00163,-0.40243 l -2.12964,-0.045 31.14606,-28.47918 c 17.13033,-15.66354 48.20582,-44.06998 69.05665,-63.12542 l 37.9106,-34.64624 1.33604,1.29897 c 0.73482,0.71443 14.73864,13.80926 31.1196,29.09961 54.28728,50.67297 102.60137,95.79228 103.36925,96.53393 l 0.75728,0.73142 -9.12712,-0.0332 c -5.0199,-0.0183 -31.72564,-0.15513 -59.34609,-0.30411 z m 61.91598,-0.69427 c -1.2191,-0.0387 -3.27352,-0.0388 -4.56536,-2.2e-4 -1.29187,0.0385 -0.29445,0.0702 2.2165,0.0703 2.51095,1.8e-4 3.56794,-0.0313 2.34886,-0.07 l 0,-1.1e-4 z m 4.02815,-0.0357 c -0.0759,-0.20702 -32.5962,-30.64487 -87.68396,-82.06903 -17.93536,-16.74258 -35.66416,-33.30553 -39.39734,-36.80657 -3.73318,-3.50103 -6.88517,-6.36552 -7.00442,-6.36552 -0.11925,0 -3.08133,2.61992 -6.58239,5.82204 -3.50107,3.20213 -14.87672,13.59474 -25.27923,23.09469 -49.78645,45.46685 -102.67797,93.819 -103.26417,94.40164 -0.35871,0.35652 -0.53569,0.61261 -0.39329,0.56908 0.1424,-0.0435 6.30231,-5.60648 13.6887,-12.36214 62.62553,-57.27783 121.57371,-110.98181 121.81919,-110.98181 0.0971,0 6.86178,6.21215 15.03271,13.80479 16.3139,15.15928 87.5018,81.58998 105.18695,98.15773 2.57074,2.40831 6.65467,6.22452 9.07542,8.48047 2.99793,2.79383 4.31503,4.15657 4.13057,4.27369 -0.1777,0.11285 -0.0964,0.17311 0.23646,0.1753 0.27901,0.002 0.47467,-0.0856 0.4348,-0.19436 z M 336.6573,378.87373 c -0.57156,-0.0449 -1.45202,-0.0444 -1.95658,10e-4 -0.50456,0.0456 -0.0369,0.0824 1.0392,0.0817 1.07612,-6.5e-4 1.48894,-0.038 0.91738,-0.0829 l 0,-1e-4 z m -64.08983,-0.36546 c -0.15981,-0.15981 -36.91685,-0.22175 -37.07612,-0.0625 -0.0843,0.0843 8.24381,0.15319 18.50682,0.15319 10.26301,0 18.61919,-0.0408 18.5693,-0.0907 z m -39.54823,-0.24728 c -0.78479,-0.16886 -27.39218,-0.23217 -27.39218,-0.0652 0,0.10218 6.23661,0.17444 13.85914,0.16057 7.62252,-0.0139 13.71239,-0.0568 13.53304,-0.0954 l 0,0 z"
         id="path3977"
         inkscape:connector-curvature="0" />
    </g>
  </g>
</svg>
